<svg width="1923" height="1239" viewBox="0 0 1923 1239" fill="none" xmlns="http://www.w3.org/2000/svg">
<g clip-path="url(#clip0)">
<path d="M627.991 717.95C691.314 743.131 711.715 829.989 669.38 886.556C626.553 942.968 520.34 969.416 465.495 1017.82C410.65 1066.22 406.858 1137.54 373.348 1170.42C339.839 1203.29 277.438 1198.51 230.411 1171.57C183.876 1144.78 153.54 1096.61 116.543 1050.59C79.8795 1005.2 37.5372 962.263 22.9636 908.993C8.39009 855.722 22.077 792.274 50.0299 721.663C77.8259 651.531 119.888 574.237 173.168 580.386C226.448 586.536 290.298 676.455 375.01 702.533C459.565 729.091 565.16 692.922 627.991 717.95Z" fill="#0099FF"/>
<path d="M1554.14 153.815C1641.65 191.057 1722.89 235.533 1792.53 304.79C1862.01 373.468 1919.28 467.083 1907.5 551.519C1894.97 635.532 1812.94 711.101 1735.19 767.539C1657.44 823.977 1583.38 861.44 1504.88 882.681C1426.38 903.922 1342.86 909.098 1249.54 896.978C1156.66 884.123 1053.82 853.393 982.408 784.602C911.589 715.655 871.61 608.803 875.762 503.397C879.755 397.412 928.47 292.718 1003.24 218.434C1077.59 144.885 1179.01 100.855 1276.02 94C1373.61 86.9894 1466.63 116.574 1554.14 153.815Z" fill="#0099FF"/>
</g>
<defs>
<clipPath id="clip0">
<rect width="1923" height="1239" fill="white"/>
</clipPath>
</defs>
</svg>
