<svg width="1530" height="1000" viewBox="0 0 1530 1000" fill="none" xmlns="http://www.w3.org/2000/svg">
<g clip-path="url(#clip0)">
<path d="M430.991 717.95C494.314 743.131 514.715 829.989 472.38 886.556C429.553 942.968 323.34 969.416 268.495 1017.82C213.65 1066.22 209.858 1137.54 176.348 1170.42C142.839 1203.29 80.4382 1198.51 33.4112 1171.57C-13.1242 1144.78 -43.4596 1096.61 -80.4574 1050.59C-117.121 1005.2 -159.463 962.263 -174.036 908.993C-188.61 855.722 -174.923 792.274 -146.97 721.663C-119.174 651.531 -77.112 574.237 -23.8318 580.386C29.4485 586.536 93.2984 676.455 178.01 702.533C262.565 729.091 368.16 692.922 430.991 717.95Z" fill="#0099FF"/>
<path d="M1357.14 153.815C1444.65 191.057 1525.89 235.533 1595.53 304.79C1665.01 373.468 1722.28 467.083 1710.5 551.519C1697.97 635.532 1615.94 711.101 1538.19 767.539C1460.44 823.977 1386.37 861.44 1307.88 882.681C1229.38 903.922 1145.86 909.098 1052.54 896.978C959.66 884.123 856.818 853.393 785.408 784.602C714.589 715.655 674.61 608.803 678.762 503.397C682.755 397.412 731.47 292.718 806.244 218.434C880.585 144.885 982.01 100.855 1079.02 94C1176.61 86.9894 1269.63 116.574 1357.14 153.815Z" fill="#0099FF"/>
</g>
<defs>
<clipPath id="clip0">
<rect width="1530" height="1000" fill="white"/>
</clipPath>
</defs>
</svg>
