<svg width="768" height="1024" viewBox="0 0 768 1024" fill="none" xmlns="http://www.w3.org/2000/svg">
<g clip-path="url(#clip0)">
<path d="M480.516 636.65C538.345 660.107 556.976 741.015 518.314 793.707C479.203 846.255 382.206 870.891 332.119 915.979C282.033 961.067 278.57 1027.5 247.968 1058.12C217.366 1088.75 160.379 1084.3 117.433 1059.2C74.9349 1034.24 47.2316 989.377 13.4439 946.506C-20.0381 904.226 -58.7066 864.229 -72.0156 814.607C-85.3247 764.985 -72.8254 705.884 -47.2978 640.109C-21.9135 574.782 16.499 502.782 65.1564 508.51C113.814 514.238 172.124 597.998 249.486 622.289C326.704 647.028 423.137 613.337 480.516 636.65Z" fill="#0099FF"/>
<path d="M735.787 -25.622C766.445 -1.03142 778.416 47.5643 794.474 95.2818C810.533 142.999 831.263 189.546 815.204 219.699C799.146 249.851 746.299 263.318 705.13 293.178C664.254 323.038 635.057 368.999 593.304 386.271C551.844 403.25 497.829 391.54 467.756 358.167C437.682 324.794 431.551 269.758 422.792 220.869C414.033 171.981 402.938 129.24 410.529 88.2559C418.12 47.5643 444.398 8.62918 480.019 -14.4977C515.931 -37.9173 560.895 -45.5287 608.195 -48.7489C655.495 -51.9691 705.13 -50.5054 735.787 -25.622Z" fill="#0099FF"/>
</g>
<defs>
<clipPath id="clip0">
<rect width="768" height="1024" fill="white"/>
</clipPath>
</defs>
</svg>
