<svg width="425" height="705" viewBox="0 0 425 705" fill="none" xmlns="http://www.w3.org/2000/svg">
<g clip-path="url(#clip0)">
<path d="M262.528 406.236C295.737 419.706 306.436 466.169 284.234 496.428C261.774 526.604 206.072 540.752 177.309 566.644C148.546 592.536 146.558 630.687 128.984 648.273C111.41 665.859 78.6851 663.302 54.0224 648.889C29.6175 634.558 13.7085 608.794 -5.69459 584.174C-24.9221 559.895 -47.128 536.926 -54.7709 508.43C-62.4138 479.934 -55.2359 445.994 -40.5763 408.222C-25.9991 370.707 -3.94013 329.36 24.002 332.65C51.9442 335.939 85.4295 384.039 129.856 397.989C174.199 412.195 229.577 392.848 262.528 406.236Z" fill="#0099FF"/>
<path d="M440.848 -16.6382C461.41 -0.133701 469.439 32.4823 480.209 64.5089C490.98 96.5355 504.883 127.776 494.113 148.014C483.342 168.252 447.898 177.29 420.286 197.331C392.87 217.372 373.287 248.22 345.284 259.812C317.477 271.208 281.249 263.349 261.078 240.95C240.908 218.551 236.796 181.612 230.921 148.8C225.046 115.987 217.605 87.3009 222.696 59.7934C227.788 32.4823 245.412 6.35021 269.303 -9.17188C293.39 -24.8905 323.547 -29.999 355.271 -32.1603C386.995 -34.3216 420.286 -33.3392 440.848 -16.6382Z" fill="#0099FF"/>
</g>
<defs>
<clipPath id="clip0">
<rect width="425" height="705" fill="white"/>
</clipPath>
</defs>
</svg>
