<svg width="425" height="978" viewBox="0 0 425 978" fill="none" xmlns="http://www.w3.org/2000/svg">
<g clip-path="url(#clip0)">
<path d="M254.528 547.236C287.737 560.706 298.436 607.169 276.234 637.428C253.774 667.604 198.072 681.752 169.309 707.644C140.546 733.536 138.558 771.687 120.984 789.273C103.41 806.859 70.6851 804.302 46.0224 789.889C21.6175 775.558 5.70846 749.794 -13.6946 725.174C-32.9221 700.895 -55.128 677.926 -62.7709 649.43C-70.4138 620.934 -63.2359 586.994 -48.5763 549.222C-33.9991 511.707 -11.9401 470.36 16.002 473.65C43.9442 476.939 77.4295 525.039 121.856 538.989C166.199 553.195 221.577 533.848 254.528 547.236Z" fill="#0099FF"/>
<path d="M440.848 -16.6382C461.41 -0.133699 469.439 32.4823 480.209 64.5089C490.98 96.5355 504.883 127.776 494.113 148.014C483.342 168.252 447.898 177.29 420.286 197.331C392.87 217.372 373.287 248.22 345.284 259.812C317.477 271.208 281.249 263.349 261.078 240.95C240.908 218.551 236.796 181.612 230.921 148.8C225.046 115.987 217.605 87.3009 222.696 59.7934C227.788 32.4823 245.412 6.35021 269.303 -9.17188C293.39 -24.8905 323.547 -29.999 355.271 -32.1603C386.995 -34.3216 420.286 -33.3392 440.848 -16.6382Z" fill="#0099FF"/>
</g>
<defs>
<clipPath id="clip0">
<rect width="425" height="978" fill="white"/>
</clipPath>
</defs>
</svg>
