<svg width="37" height="37" viewBox="0 0 37 37" fill="none" xmlns="http://www.w3.org/2000/svg">
<g clip-path="url(#clip0)">
<path d="M18.996 0.887207C9.35901 0.887207 1.55847 8.6862 1.55847 18.3247C1.55847 27.9617 9.35746 35.7622 18.996 35.7622C22.3818 35.7622 25.6997 34.768 28.5168 32.934C29.3609 32.3845 29.5452 31.2263 28.9072 30.4469L28.1917 29.5727C27.6523 28.9138 26.7025 28.7524 25.9857 29.2121C23.9122 30.542 21.479 31.2622 18.996 31.2622C11.8622 31.2622 6.05847 25.4585 6.05847 18.3247C6.05847 11.1909 11.8622 5.38721 18.996 5.38721C26.037 5.38721 31.9335 9.43854 31.9335 16.6372C31.9335 19.3643 30.4504 22.2441 27.8434 22.5219C26.6235 22.4899 26.6544 21.6179 26.8959 20.4108L28.5435 11.8953C28.745 10.854 27.9473 9.88721 26.8868 9.88721H23.7241C23.4905 9.8872 23.2652 9.97316 23.091 10.1287C22.9168 10.2842 22.806 10.4984 22.7796 10.7305L22.7789 10.7369C21.7455 9.47827 19.9349 9.20588 18.5622 9.20588C13.3183 9.20588 8.87097 13.5817 8.87097 19.8554C8.87097 24.447 11.4574 27.2994 15.621 27.2994C17.5183 27.2994 19.6547 26.1999 20.8938 24.6041C21.5633 27.002 23.7494 27.002 25.8656 27.002C33.5232 27.002 36.4335 21.9668 36.4335 16.6372C36.4335 7.05031 28.7007 0.887207 18.996 0.887207ZM17.4716 22.2924C15.9072 22.2924 14.9354 21.1939 14.9354 19.4257C14.9354 16.2622 17.0996 14.312 19.0578 14.312C20.6253 14.312 21.561 15.3836 21.561 17.1786C21.561 20.347 19.1792 22.2924 17.4716 22.2924Z" fill="white"/>
</g>
<defs>
<clipPath id="clip0">
<rect width="36" height="36" fill="white" transform="translate(0.995972 0.324707)"/>
</clipPath>
</defs>
</svg>
