<?xml version="1.0" standalone="no"?>
<!DOCTYPE svg PUBLIC "-//W3C//DTD SVG 20010904//EN"
 "http://www.w3.org/TR/2001/REC-SVG-20010904/DTD/svg10.dtd">
<svg version="1.0" xmlns="http://www.w3.org/2000/svg"
 width="48.000000pt" height="48.000000pt" viewBox="0 0 48.000000 48.000000"
 preserveAspectRatio="xMidYMid meet">

<g transform="translate(0.000000,48.000000) scale(0.100000,-0.100000)"
fill="#000000" stroke="none">
<path d="M172 429 c-47 -14 -109 -80 -123 -131 -23 -89 12 -182 88 -229 57
-36 154 -34 210 3 61 40 88 90 88 163 0 33 -4 69 -8 79 -14 36 -31 -1 -32 -68
0 -104 -56 -161 -155 -161 -97 0 -155 58 -155 155 0 63 16 95 69 134 36 28
137 30 163 4 25 -26 6 -41 -35 -27 -46 16 -94 4 -128 -32 -24 -25 -29 -39 -29
-79 0 -43 5 -54 33 -82 28 -28 39 -33 82 -33 42 0 54 5 81 31 21 22 32 44 36
75 l6 44 -22 -19 c-11 -11 -21 -25 -21 -33 0 -26 -47 -63 -80 -63 -41 0 -80
39 -80 80 0 44 40 82 83 78 17 -2 31 -7 30 -13 -1 -9 -11 -15 -53 -35 -21 -10
-19 -50 2 -64 22 -14 51 2 56 30 2 10 39 55 83 99 62 63 77 83 67 93 -9 9 -17
7 -35 -9 -22 -21 -23 -21 -60 -4 -46 22 -116 28 -161 14z"/>
</g>
</svg>
