<svg width="36" height="36" viewBox="0 0 36 36" fill="none" xmlns="http://www.w3.org/2000/svg">
<path d="M18.0071 9.91404C13.5352 9.91404 9.92815 13.5211 9.92815 17.9929C9.92815 22.4648 13.5352 26.0718 18.0071 26.0718C22.4789 26.0718 26.086 22.4648 26.086 17.9929C26.086 13.5211 22.4789 9.91404 18.0071 9.91404ZM18.0071 23.2453C15.1172 23.2453 12.7547 20.8898 12.7547 17.9929C12.7547 15.0961 15.1102 12.7406 18.0071 12.7406C20.9039 12.7406 23.2594 15.0961 23.2594 17.9929C23.2594 20.8898 20.8969 23.2453 18.0071 23.2453V23.2453ZM28.3008 9.58357C28.3008 10.6312 27.4571 11.4679 26.4164 11.4679C25.3688 11.4679 24.5321 10.6242 24.5321 9.58357C24.5321 8.54294 25.3758 7.69919 26.4164 7.69919C27.4571 7.69919 28.3008 8.54294 28.3008 9.58357ZM33.6516 11.4961C33.5321 8.97185 32.9555 6.73591 31.1063 4.89373C29.2641 3.05154 27.0281 2.47498 24.5039 2.34841C21.9024 2.20076 14.1047 2.20076 11.5031 2.34841C8.98596 2.46794 6.75002 3.04451 4.90081 4.88669C3.05159 6.72888 2.48206 8.96482 2.35549 11.489C2.20784 14.0906 2.20784 21.8883 2.35549 24.4898C2.47502 27.014 3.05159 29.25 4.90081 31.0922C6.75002 32.9344 8.97893 33.5109 11.5031 33.6375C14.1047 33.7851 21.9024 33.7851 24.5039 33.6375C27.0281 33.5179 29.2641 32.9414 31.1063 31.0922C32.9485 29.25 33.525 27.014 33.6516 24.4898C33.7992 21.8883 33.7992 14.0976 33.6516 11.4961V11.4961ZM30.2906 27.2812C29.7422 28.6593 28.6805 29.7211 27.2953 30.2765C25.2211 31.0992 20.2992 30.9094 18.0071 30.9094C15.7149 30.9094 10.786 31.0922 8.71877 30.2765C7.34065 29.7281 6.27893 28.6664 5.72346 27.2812C4.90081 25.207 5.09065 20.2851 5.09065 17.9929C5.09065 15.7008 4.90784 10.7719 5.72346 8.70466C6.2719 7.32654 7.33362 6.26482 8.71877 5.70935C10.793 4.88669 15.7149 5.07654 18.0071 5.07654C20.2992 5.07654 25.2281 4.89373 27.2953 5.70935C28.6735 6.25779 29.7352 7.31951 30.2906 8.70466C31.1133 10.7789 30.9235 15.7008 30.9235 17.9929C30.9235 20.2851 31.1133 25.214 30.2906 27.2812Z" fill="white"/>
</svg>
