<svg width="36" height="36" viewBox="0 0 36 36" fill="none" xmlns="http://www.w3.org/2000/svg">
<g clip-path="url(#clip0)">
<path d="M24.0285 22.0008C24.7176 21.5297 25.6739 21.1219 25.6739 21.1219C25.6739 21.1219 22.9528 21.6141 20.2457 21.8391C16.934 22.1133 13.3762 22.1695 11.5903 21.9305C7.36448 21.368 13.9106 19.8141 13.9106 19.8141C13.9106 19.8141 11.3723 19.6453 8.24338 21.15C4.55198 22.9359 17.384 23.7516 24.0285 22.0008ZM18.0239 19.7437C16.6879 16.7414 12.1809 14.1047 18.0239 9.49219C25.3124 3.74062 21.5746 0 21.5746 0C23.0864 5.94141 16.259 7.74141 13.791 11.4328C12.1106 13.957 14.6137 16.6641 18.0239 19.7437V19.7437ZM26.0817 7.35469C26.0887 7.35469 13.7629 10.4344 19.6481 17.2125C21.3848 19.2094 19.191 21.0094 19.191 21.0094C19.191 21.0094 23.5996 18.7312 21.5746 15.8836C19.6832 13.2258 18.2348 11.9039 26.0817 7.35469V7.35469ZM25.6528 26.3742C25.6143 26.4412 25.567 26.5027 25.5121 26.557C34.5332 24.1875 31.2145 18.1969 26.9043 19.7156C26.6715 19.8012 26.4704 19.9557 26.3278 20.1586C26.5794 20.0675 26.8381 19.997 27.1012 19.9477C29.2809 19.4906 32.4098 22.8656 25.6528 26.3742V26.3742ZM28.9687 30.7547C28.9687 30.7547 29.9882 31.5914 27.8507 32.2453C23.7796 33.4758 10.9195 33.8484 7.3476 32.2945C6.06088 31.7391 8.4726 30.9586 9.23198 30.7969C10.0195 30.6281 10.4765 30.6562 10.4765 30.6562C9.04916 29.6508 1.24448 32.632 6.51088 33.4828C20.8715 35.8172 32.6953 32.4352 28.9687 30.7547ZM13.2496 27.8438C7.71604 29.3906 16.6176 32.5828 23.6629 29.5664C22.9758 29.2995 22.3125 28.9749 21.6801 28.5961C18.5371 29.1938 17.0817 29.2359 14.227 28.9125C11.8715 28.6453 13.2496 27.8438 13.2496 27.8438V27.8438ZM25.8918 34.6781C20.3582 35.7188 13.5309 35.5992 9.48791 34.9312C9.48791 34.9242 10.3176 35.6133 14.5785 35.8875C21.0614 36.3023 31.0176 35.6555 31.2496 32.5898C31.2496 32.5898 30.7996 33.75 25.8918 34.6781V34.6781ZM22.8262 24.8203C18.6637 25.6219 16.252 25.6008 13.2074 25.2844C10.852 25.0383 12.3918 23.8992 12.3918 23.8992C6.28869 25.9242 15.7809 28.2164 24.3098 25.7203C23.7586 25.5257 23.2535 25.2193 22.8262 24.8203Z" fill="white"/>
</g>
<defs>
<clipPath id="clip0">
<rect width="36" height="36" fill="white"/>
</clipPath>
</defs>
</svg>
