<svg width="36" height="36" viewBox="0 0 36 36" fill="none" xmlns="http://www.w3.org/2000/svg">
<path d="M30.375 2.25H5.625C3.76172 2.25 2.25 3.76172 2.25 5.625V30.375C2.25 32.2383 3.76172 33.75 5.625 33.75H30.375C32.2383 33.75 33.75 32.2383 33.75 30.375V5.625C33.75 3.76172 32.2383 2.25 30.375 2.25ZM19.3922 26.8172C19.3922 29.8828 17.5922 31.282 14.9695 31.282C12.6 31.282 11.2289 30.0586 10.5258 28.575L12.9375 27.1195C13.4016 27.9422 13.8234 28.6383 14.843 28.6383C15.8133 28.6383 16.432 28.2586 16.432 26.775V16.7133H19.3922V26.8172V26.8172ZM26.3953 31.282C23.6461 31.282 21.8672 29.9742 21.0023 28.2586L23.4141 26.8664C24.0469 27.9 24.8766 28.6664 26.332 28.6664C27.5555 28.6664 28.343 28.0547 28.343 27.2039C28.343 26.1914 27.5414 25.8328 26.1844 25.2352L25.4461 24.9187C23.3086 24.0117 21.8953 22.8656 21.8953 20.4539C21.8953 18.232 23.5898 16.5445 26.2266 16.5445C28.1109 16.5445 29.4609 17.1984 30.4312 18.9141L28.125 20.3906C27.6188 19.4836 27.0703 19.125 26.2195 19.125C25.3547 19.125 24.8062 19.6734 24.8062 20.3906C24.8062 21.2766 25.3547 21.6352 26.6273 22.1906L27.3656 22.507C29.8828 23.5828 31.2961 24.6867 31.2961 27.1617C31.2961 29.8195 29.2008 31.282 26.3953 31.282V31.282Z" fill="white"/>
</svg>
