<svg width="58" height="50" viewBox="0 0 58 50" fill="none" xmlns="http://www.w3.org/2000/svg">
<g filter="url(#filter0_f)">
<circle cx="25" cy="25" r="25" fill="white"/>
</g>
<path d="M9.52203 34.2328C9.52203 34.2328 16.2105 36.5016 19.7609 34.6535C22.0357 33.4694 22.0378 31.2375 22.3912 29.0041C15.272 28.8117 10.8454 32.4097 9.52203 34.2328Z" fill="#FF6600"/>
<path d="M36.304 24.2213C39.7869 23.8824 41.7145 19.3532 41.6874 18.4517C38.9122 18.2404 32.7251 18.957 30.1791 23.5137C32.0496 23.8254 34.0173 24.4438 36.304 24.2213Z" fill="#FF6600"/>
<path d="M30.9603 8.00482C29.0991 7.35387 27.0985 7 25.0154 7C22.266 7 19.6605 7.61646 17.3292 8.71882C16.3884 10.8704 15.6478 14.813 17.5694 17.217C18.6303 13.3329 23.3941 6.32722 33.9627 9.37749C33.0129 8.83244 32.0087 8.3715 30.9603 8.00482Z" fill="#FF6600"/>
<path d="M24.9852 43C34.9344 43 42.9998 34.9277 42.9998 24.9699C42.8172 22.3266 42.4729 20.4486 41.6577 18.419C41.6848 19.3205 39.7572 23.8497 36.2744 24.1886C33.9876 24.4111 32.0199 23.7928 30.1494 23.481C28.4834 23.2034 26.8944 23.169 25.2254 24.1886C24.0771 24.8901 23.4141 25.757 23.0036 26.6965C22.6815 27.4335 22.5149 28.2151 22.3912 28.9966C22.0378 31.2301 22.0357 33.462 19.7609 34.6461C16.2105 36.4941 9.52203 34.2254 9.52203 34.2254C12.6696 39.4817 18.4169 43 24.9852 43Z" fill="#0099FF"/>
<path d="M7.63114 20.3664C7.21964 21.8791 7 23.471 7 25.1143C14.398 29.3453 18.9697 25.7954 19.5502 23.131C19.8382 21.8088 20.0186 20.3664 17.5686 17.3013C15.647 14.8972 16.3876 10.9546 17.3284 8.80304C16.0708 9.39771 14.893 10.1338 13.8156 10.9907C12.0284 12.4122 10.5172 14.1662 9.37545 16.1594C8.62607 17.4675 8.03583 18.8787 7.63114 20.3664Z" fill="#0099FF"/>
<path d="M7 25.0167C7 28.4094 7.92815 31.5837 9.54273 34.2964C10.8616 32.4686 15.2729 28.8612 22.3678 29.054C22.491 28.2704 22.6571 27.4867 22.9781 26.7478C23.3872 25.8059 24.0479 24.9367 25.1922 24.2334C26.8555 23.2111 28.4391 23.2456 30.0994 23.5239C32.6367 18.9553 38.8025 18.2368 41.5683 18.4486C41.107 17.2932 40.4945 16.0888 39.6742 14.6672C39.152 13.9154 38.5744 13.2055 37.9474 12.5434C36.7535 11.2827 35.3805 10.1955 33.8695 9.32313C23.3371 6.26488 18.5896 13.2889 17.5324 17.1832C19.9739 20.2564 19.7942 21.7025 19.5072 23.0282C18.9287 25.6996 14.3726 29.2589 7 25.0167Z" fill="white"/>
<path d="M30.252 39.4399L29.0673 38.9725C28.943 38.9249 28.873 38.748 28.908 38.5789L31.5591 26.1604C31.5941 25.9913 31.7242 25.8963 31.8485 25.9438L33.0332 26.4113C33.1575 26.4588 33.2275 26.6358 33.1925 26.8048L30.5414 39.2234C30.5045 39.3924 30.3763 39.4901 30.252 39.4399ZM28.0379 36.4766L28.8828 35.2511C28.9721 35.1217 28.9663 34.9157 28.8672 34.7969L27.1076 32.6919L28.8672 30.5869C28.9663 30.4681 28.974 30.262 28.8828 30.1326L28.0379 28.9071C27.9505 28.7804 27.8029 28.7724 27.7077 28.8939L24.909 32.4595C24.81 32.5836 24.81 32.7975 24.909 32.9217L27.7077 36.4898C27.8029 36.6113 27.9505 36.606 28.0379 36.4766ZM34.3928 36.4925L37.1915 32.9243C37.2906 32.8002 37.2906 32.5862 37.1915 32.4621L34.3928 28.8913C34.2996 28.7724 34.152 28.7777 34.0626 28.9045L33.2178 30.13C33.1284 30.2594 33.1342 30.4654 33.2333 30.5843L34.9929 32.6919L33.2333 34.7969C33.1342 34.9157 33.1265 35.1217 33.2178 35.2511L34.0626 36.4766C34.15 36.606 34.2976 36.6113 34.3928 36.4925Z" fill="white"/>
<defs>
<filter id="filter0_f" x="-8" y="-8" width="66" height="66" filterUnits="userSpaceOnUse" color-interpolation-filters="sRGB">
<feFlood flood-opacity="0" result="BackgroundImageFix"/>
<feBlend mode="normal" in="SourceGraphic" in2="BackgroundImageFix" result="shape"/>
<feGaussianBlur stdDeviation="4" result="effect1_foregroundBlur"/>
</filter>
</defs>
</svg>
