<svg width="50" height="50" viewBox="0 0 50 50" fill="none" xmlns="http://www.w3.org/2000/svg">
<g clip-path="url(#clip0)">
<g filter="url(#filter0_f)">
<circle cx="25" cy="26" r="19" fill="white"/>
</g>
<path d="M10.4212 35.1434C10.4212 35.1434 16.8421 37.3214 20.2506 35.5473C22.4343 34.4106 22.4364 32.2679 22.7756 30.1238C15.9411 29.9392 11.6916 33.3933 10.4212 35.1434Z" fill="#FF6600"/>
<path d="M36.1319 25.5323C39.4754 25.207 41.3259 20.8589 41.3 19.9935C38.6357 19.7907 32.6962 20.4786 30.252 24.8531C32.0477 25.1523 33.9366 25.7459 36.1319 25.5323Z" fill="#FF6600"/>
<path d="M31.0019 9.96463C29.2151 9.33971 27.2946 9 25.2948 9C22.6554 9 20.1541 9.5918 17.9161 10.6501C17.0129 12.7156 16.3019 16.5005 18.1466 18.8084C19.1651 15.0796 23.7384 8.35414 33.8842 11.2824C32.9724 10.7591 32.0083 10.3166 31.0019 9.96463Z" fill="#FF6600"/>
<path d="M25.2658 43.5599C34.8171 43.5599 42.5599 35.8105 42.5599 26.251C42.3846 23.7134 42.054 21.9105 41.2715 19.9622C41.2974 20.8276 39.4469 25.1756 36.1034 25.501C33.9081 25.7146 32.0192 25.121 30.2235 24.8217C28.6241 24.5552 27.0986 24.5222 25.4964 25.501C24.3941 26.1744 23.7576 27.0066 23.3635 27.9085C23.0543 28.616 22.8943 29.3665 22.7756 30.1167C22.4364 32.2608 22.4343 34.4034 20.2506 35.5401C16.8421 37.3143 10.4212 35.1363 10.4212 35.1363C13.4429 40.1823 18.9602 43.5599 25.2658 43.5599Z" fill="#0099FF"/>
<path d="M8.6059 21.8317C8.21086 23.284 8 24.8122 8 26.3897C15.1021 30.4516 19.4909 27.0436 20.0482 24.4858C20.3247 23.2165 20.4978 21.8317 18.1458 18.8892C16.3011 16.5814 17.0121 12.7965 17.9152 10.731C16.708 11.3018 15.5773 12.0085 14.5429 12.8311C12.8273 14.1957 11.3765 15.8796 10.2804 17.793C9.56103 19.0489 8.9944 20.4036 8.6059 21.8317Z" fill="#0099FF"/>
<path d="M8 26.2961C8 29.553 8.89103 32.6004 10.441 35.2046C11.7071 33.4499 15.942 29.9867 22.7531 30.1719C22.8714 29.4197 23.0308 28.6673 23.3389 27.9579C23.7317 27.0537 24.366 26.2193 25.4646 25.5441C27.0613 24.5627 28.5815 24.5958 30.1754 24.863C32.6112 20.4771 38.5304 19.7874 41.1855 19.9907C40.7427 18.8815 40.1547 17.7253 39.3673 16.3605C38.8659 15.6388 38.3114 14.9573 37.7095 14.3217C36.5633 13.1114 35.2453 12.0677 33.7947 11.2302C23.6836 8.29432 19.126 15.0374 18.1111 18.7759C20.455 21.7261 20.2825 23.1145 20.0069 24.3871C19.4515 26.9517 15.0777 30.3685 8 26.2961Z" fill="white"/>
<path d="M30.3219 40.1424L29.1846 39.6936C29.0653 39.6479 28.9981 39.4781 29.0317 39.3158L31.5768 27.394C31.6103 27.2317 31.7352 27.1404 31.8546 27.1861L32.9919 27.6348C33.1113 27.6805 33.1784 27.8503 33.1448 28.0126L30.5998 39.9344C30.5643 40.0967 30.4413 40.1905 30.3219 40.1424ZM28.1964 37.2975L29.0075 36.1211C29.0932 35.9968 29.0876 35.7991 28.9925 35.685L27.3033 33.6642L28.9925 31.6434C29.0876 31.5293 29.0951 31.3316 29.0075 31.2073L28.1964 30.0309C28.1125 29.9092 27.9708 29.9015 27.8794 30.0182L25.1927 33.4411C25.0976 33.5602 25.0976 33.7656 25.1927 33.8848L27.8794 37.3102C27.9708 37.4269 28.1125 37.4218 28.1964 37.2975ZM34.2971 37.3128L36.9839 33.8873C37.0789 33.7682 37.0789 33.5628 36.9839 33.4436L34.2971 30.0156C34.2076 29.9015 34.0659 29.9066 33.9801 30.0283L33.1691 31.2048C33.0833 31.329 33.0889 31.5268 33.184 31.6409L34.8732 33.6642L33.184 35.685C33.0889 35.7991 33.0814 35.9968 33.1691 36.1211L33.9801 37.2975C34.064 37.4218 34.2057 37.4269 34.2971 37.3128Z" fill="white"/>
</g>
<defs>
<filter id="filter0_f" x="-2" y="-1" width="54" height="54" filterUnits="userSpaceOnUse" color-interpolation-filters="sRGB">
<feFlood flood-opacity="0" result="BackgroundImageFix"/>
<feBlend mode="normal" in="SourceGraphic" in2="BackgroundImageFix" result="shape"/>
<feGaussianBlur stdDeviation="4" result="effect1_foregroundBlur"/>
</filter>
<clipPath id="clip0">
<rect width="50" height="50" fill="white"/>
</clipPath>
</defs>
</svg>