<svg width="36" height="36" viewBox="0 0 36 36" fill="none" xmlns="http://www.w3.org/2000/svg">
<path d="M18 9.47814C27.6412 9.47814 35.055 13.5394 35.055 18C35.055 22.4606 27.6356 26.5219 18 26.5219C8.35875 26.5219 0.945 22.4606 0.945 18C0.945 13.5394 8.36437 9.47814 18 9.47814ZM18 8.53314C8.06062 8.53314 0 12.7688 0 18C0 23.2313 8.06062 27.4669 18 27.4669C27.9394 27.4669 36 23.2313 36 18C36 12.7688 27.9394 8.53314 18 8.53314ZM12.2737 17.2406C11.8294 19.5188 10.26 19.2825 8.33063 19.2825L9.10125 15.3113C11.2387 15.3113 12.69 15.0806 12.2737 17.2406ZM5.47875 23.3044H7.54313L8.0325 20.7844C10.3444 20.7844 11.7787 20.9531 13.1062 19.71C14.5744 18.36 14.9569 15.9581 13.9106 14.7544C13.365 14.1244 12.4875 13.815 11.295 13.815H7.31813L5.47875 23.3044ZM15.9244 11.2894H17.9775L17.4881 13.8094C19.26 13.8094 20.9025 13.68 21.6956 14.4113C22.5281 15.1763 22.1287 16.155 21.2287 20.7731H19.1475C20.0137 16.3069 20.1769 15.9356 19.8619 15.5981C19.5581 15.2719 18.8663 15.3394 17.1956 15.3394L16.1381 20.7731H14.085L15.9244 11.2894V11.2894ZM28.4062 17.2406C27.9562 19.5525 26.3419 19.2825 24.4631 19.2825L25.2337 15.3113C27.3825 15.3113 28.8225 15.0806 28.4062 17.2406V17.2406ZM21.6113 23.3044H23.6812L24.1706 20.7844C26.6006 20.7844 27.945 20.925 29.2444 19.71C30.7125 18.36 31.095 15.9581 30.0487 14.7544C29.5031 14.1244 28.6256 13.815 27.4331 13.815H23.4562L21.6113 23.3044V23.3044Z" fill="white"/>
</svg>
