<svg width="36" height="36" viewBox="0 0 36 36" fill="none" xmlns="http://www.w3.org/2000/svg">
<path d="M33.1734 14.0977C32.632 11.925 31.6055 10.2867 29.4187 10.2867H26.5992V13.6196C26.5992 16.2071 24.4055 18.3867 21.9023 18.3867H14.393C12.3398 18.3867 10.6383 20.1446 10.6383 22.2047V29.3625C10.6383 31.4016 12.4101 32.5969 14.393 33.1805C16.7695 33.8766 19.0547 34.0032 21.9023 33.1805C23.7937 32.6321 25.657 31.5282 25.657 29.3625V26.5008H18.1547V25.5446H29.4187C31.6055 25.5446 32.4141 24.0188 33.1734 21.7336C33.9609 19.3782 33.9258 17.1141 33.1734 14.0977V14.0977ZM22.3734 28.4063C23.1539 28.4063 23.7867 29.0461 23.7867 29.8336C23.7867 30.6282 23.1539 31.268 22.3734 31.268C21.6 31.268 20.9601 30.6211 20.9601 29.8336C20.9672 29.0391 21.6 28.4063 22.3734 28.4063ZM14.0484 17.4446H21.5578C23.6461 17.4446 25.3125 15.7219 25.3125 13.6266V6.46175C25.3125 4.42269 23.5969 2.8969 21.5578 2.55237C19.0406 2.13753 16.3055 2.15862 14.0484 2.5594C10.8703 3.1219 10.2937 4.29612 10.2937 6.46878V9.3305H17.8101V10.2867H7.47421C5.28749 10.2867 3.37499 11.6016 2.77734 14.0977C2.08827 16.9594 2.06015 18.7453 2.77734 21.7336C3.31171 23.9555 4.58437 25.5446 6.77109 25.5446H9.35155V22.1133C9.35155 19.6313 11.4961 17.4446 14.0484 17.4446ZM13.5773 7.418C12.7969 7.418 12.1641 6.77815 12.1641 5.99065C12.1711 5.19612 12.7969 4.55628 13.5773 4.55628C14.3508 4.55628 14.9906 5.20315 14.9906 5.99065C14.9906 6.77815 14.3578 7.418 13.5773 7.418V7.418Z" fill="white"/>
</svg>
