<svg width="70" height="70" viewBox="0 0 70 70" fill="none" xmlns="http://www.w3.org/2000/svg">
<circle cx="35" cy="35" r="35" fill="#FF6500"/>
<path d="M35.5 22.0625C26.5417 22.0625 18.8913 27.6346 15.7917 35.5C18.8913 43.3654 26.5417 48.9375 35.5 48.9375C44.4584 48.9375 52.1088 43.3654 55.2084 35.5C52.1088 27.6346 44.4584 22.0625 35.5 22.0625ZM35.5 44.4583C30.555 44.4583 26.5417 40.445 26.5417 35.5C26.5417 30.555 30.555 26.5417 35.5 26.5417C40.445 26.5417 44.4584 30.555 44.4584 35.5C44.4584 40.445 40.445 44.4583 35.5 44.4583ZM35.5 30.125C32.5259 30.125 30.125 32.5258 30.125 35.5C30.125 38.4742 32.5259 40.875 35.5 40.875C38.4742 40.875 40.875 38.4742 40.875 35.5C40.875 32.5258 38.4742 30.125 35.5 30.125Z" fill="white"/>
</svg>
